<svg width="117" height="117" viewBox="0 0 117 117" fill="none" xmlns="http://www.w3.org/2000/svg">
<circle cx="58.5" cy="58.5" r="51" stroke="#FF7120" stroke-opacity="0.2" stroke-width="15"/>
<path d="M36.3613 66.7441C34.5693 66.7441 33.1093 66.5521 31.9813 66.1681C30.8533 65.7841 30.0213 65.2441 29.4853 64.5481C28.9573 63.8521 28.6933 63.0401 28.6933 62.1121C28.6933 60.9761 29.0573 60.0121 29.7853 59.2201C30.5213 58.4201 31.5533 57.8361 32.8813 57.4681L35.2693 58.2601C34.1013 58.5801 33.2573 59.0481 32.7373 59.6641C32.2173 60.2721 31.9573 60.9321 31.9573 61.6441C31.9573 62.5321 32.3213 63.2121 33.0493 63.6841C33.7853 64.1561 34.8973 64.3921 36.3853 64.3921C37.8413 64.3921 38.9133 64.1721 39.6013 63.7321C40.2893 63.2841 40.6333 62.6601 40.6333 61.8601C40.6333 61.3401 40.4893 60.9001 40.2013 60.5401C39.9213 60.1721 39.4293 59.8521 38.7253 59.5801C38.0293 59.3001 37.0573 59.0441 35.8093 58.8121C34.1853 58.5081 32.8973 58.1001 31.9453 57.5881C30.9933 57.0761 30.3093 56.4721 29.8933 55.7761C29.4853 55.0801 29.2813 54.3001 29.2813 53.4361C29.2813 52.4601 29.5453 51.6081 30.0733 50.8801C30.6013 50.1441 31.4013 49.5681 32.4733 49.1521C33.5533 48.7361 34.9053 48.5281 36.5293 48.5281C38.7053 48.5281 40.3773 48.9241 41.5453 49.7161C42.7133 50.5001 43.2973 51.5921 43.2973 52.9921C43.2973 53.6801 43.1613 54.3161 42.8893 54.9001C42.6253 55.4761 42.2013 55.9921 41.6173 56.4481C41.0413 56.8961 40.2853 57.2681 39.3493 57.5641L37.2493 56.7361C38.3293 56.3041 39.0973 55.8201 39.5533 55.2841C40.0173 54.7401 40.2493 54.1041 40.2493 53.3761C40.2493 52.5761 39.9253 51.9601 39.2773 51.5281C38.6373 51.0961 37.6853 50.8801 36.4213 50.8801C35.0693 50.8801 34.0893 51.1041 33.4813 51.5521C32.8733 52.0001 32.5693 52.5801 32.5693 53.2921C32.5693 53.8121 32.7013 54.2601 32.9653 54.6361C33.2373 55.0121 33.7253 55.3481 34.4293 55.6441C35.1333 55.9321 36.1453 56.2041 37.4653 56.4601C39.0733 56.7881 40.3453 57.1961 41.2813 57.6841C42.2173 58.1641 42.8853 58.7321 43.2853 59.3881C43.6853 60.0441 43.8853 60.7921 43.8853 61.6321C43.8853 62.6001 43.6173 63.4721 43.0813 64.2481C42.5453 65.0161 41.7213 65.6241 40.6093 66.0721C39.5053 66.5201 38.0893 66.7441 36.3613 66.7441ZM54.0904 66.7441C52.5864 66.7441 51.2784 66.4241 50.1664 65.7841C49.0544 65.1441 48.1904 64.1561 47.5744 62.8201C46.9664 61.4761 46.6624 59.7481 46.6624 57.6361C46.6624 55.5241 46.9624 53.8001 47.5624 52.4641C48.1704 51.1201 49.0304 50.1281 50.1424 49.4881C51.2544 48.8481 52.5704 48.5281 54.0904 48.5281C55.6024 48.5281 56.9144 48.8481 58.0264 49.4881C59.1464 50.1281 60.0104 51.1201 60.6184 52.4641C61.2264 53.8001 61.5304 55.5241 61.5304 57.6361C61.5304 59.7481 61.2224 61.4761 60.6064 62.8201C59.9904 64.1561 59.1264 65.1441 58.0144 65.7841C56.9024 66.4241 55.5944 66.7441 54.0904 66.7441ZM54.1024 63.9121C54.9104 63.9121 55.6144 63.7241 56.2144 63.3481C56.8224 62.9721 57.2904 62.3281 57.6184 61.4161C57.9464 60.5041 58.1104 59.2521 58.1104 57.6601C58.1104 56.0441 57.9464 54.7801 57.6184 53.8681C57.2904 52.9561 56.8224 52.3121 56.2144 51.9361C55.6144 51.5521 54.9104 51.3601 54.1024 51.3601C53.2864 51.3601 52.5744 51.5481 51.9664 51.9241C51.3664 52.3001 50.8984 52.9441 50.5624 53.8561C50.2344 54.7681 50.0704 56.0201 50.0704 57.6121C50.0704 59.2281 50.2344 60.4921 50.5624 61.4041C50.8904 62.3161 51.3544 62.9641 51.9544 63.3481C52.5624 63.7241 53.2784 63.9121 54.1024 63.9121ZM70.3692 66.5161L79.2492 48.7561H82.1292L73.2492 66.5161H70.3692ZM69.2532 59.6641C68.2852 59.6641 67.4252 59.4601 66.6732 59.0521C65.9292 58.6361 65.3452 58.0161 64.9212 57.1921C64.4972 56.3681 64.2852 55.3361 64.2852 54.0961C64.2852 52.8561 64.4932 51.8241 64.9092 51.0001C65.3332 50.1761 65.9172 49.5601 66.6612 49.1521C67.4132 48.7361 68.2772 48.5281 69.2532 48.5281C70.2292 48.5281 71.0892 48.7361 71.8332 49.1521C72.5852 49.5601 73.1692 50.1761 73.5852 51.0001C74.0092 51.8241 74.2212 52.8561 74.2212 54.0961C74.2212 55.3361 74.0092 56.3681 73.5852 57.1921C73.1612 58.0161 72.5732 58.6361 71.8212 59.0521C71.0772 59.4601 70.2212 59.6641 69.2532 59.6641ZM69.2532 57.5281C69.7012 57.5281 70.0972 57.4201 70.4412 57.2041C70.7932 56.9801 71.0652 56.6201 71.2572 56.1241C71.4572 55.6201 71.5572 54.9481 71.5572 54.1081C71.5572 53.2761 71.4572 52.6081 71.2572 52.1041C71.0652 51.5921 70.7932 51.2241 70.4412 51.0001C70.0972 50.7681 69.7012 50.6521 69.2532 50.6521C68.8052 50.6521 68.4052 50.7681 68.0532 51.0001C67.7092 51.2241 67.4372 51.5881 67.2372 52.0921C67.0452 52.5961 66.9492 53.2601 66.9492 54.0841C66.9492 54.9161 67.0452 55.5841 67.2372 56.0881C67.4372 56.5921 67.7092 56.9601 68.0532 57.1921C68.4052 57.4161 68.8052 57.5281 69.2532 57.5281ZM83.2452 66.7321C82.2772 66.7321 81.4212 66.5281 80.6772 66.1201C79.9332 65.7121 79.3452 65.0961 78.9132 64.2721C78.4892 63.4481 78.2772 62.4161 78.2772 61.1761C78.2772 59.9361 78.4892 58.9041 78.9132 58.0801C79.3372 57.2481 79.9212 56.6281 80.6652 56.2201C81.4092 55.8041 82.2692 55.5961 83.2452 55.5961C84.2292 55.5961 85.0932 55.8041 85.8372 56.2201C86.5812 56.6281 87.1612 57.2481 87.5772 58.0801C88.0012 58.9041 88.2132 59.9361 88.2132 61.1761C88.2132 62.4161 88.0012 63.4481 87.5772 64.2721C87.1532 65.0961 86.5692 65.7121 85.8252 66.1201C85.0812 66.5281 84.2212 66.7321 83.2452 66.7321ZM83.2452 64.6081C83.6932 64.6081 84.0892 64.5001 84.4332 64.2841C84.7852 64.0601 85.0612 63.6961 85.2612 63.1921C85.4612 62.6881 85.5612 62.0201 85.5612 61.1881C85.5612 60.3481 85.4612 59.6761 85.2612 59.1721C85.0612 58.6601 84.7852 58.2921 84.4332 58.0681C84.0892 57.8441 83.6932 57.7321 83.2452 57.7321C82.8052 57.7321 82.4092 57.8441 82.0572 58.0681C81.7132 58.2921 81.4412 58.6561 81.2412 59.1601C81.0412 59.6641 80.9412 60.3321 80.9412 61.1641C80.9412 61.9881 81.0412 62.6561 81.2412 63.1681C81.4412 63.6721 81.7132 64.0401 82.0572 64.2721C82.4092 64.4961 82.8052 64.6081 83.2452 64.6081Z" fill="white"/>
<path d="M58.5 0C70.0702 1.37973e-07 81.3806 3.43097 91.0009 9.85903C100.621 16.2871 108.119 25.4235 112.547 36.113C116.975 46.8025 118.133 58.5649 115.876 69.9128C113.619 81.2607 108.047 91.6844 99.8657 99.8657C91.6844 108.047 81.2607 113.619 69.9128 115.876C58.5649 118.133 46.8025 116.975 36.113 112.547C25.4235 108.119 16.2871 100.621 9.85903 91.0009C3.43096 81.3806 -2.75947e-07 70.0702 0 58.5H11.7C11.7 67.7562 14.4448 76.8045 19.5872 84.5007C24.7297 92.1969 32.0388 98.1954 40.5904 101.738C49.142 105.28 58.5519 106.207 67.6302 104.401C76.7085 102.595 85.0475 98.1377 91.5926 91.5926C98.1377 85.0475 102.595 76.7085 104.401 67.6302C106.207 58.5519 105.28 49.142 101.738 40.5904C98.1954 32.0388 92.1969 24.7297 84.5007 19.5872C76.8045 14.4448 67.7562 11.7 58.5 11.7V0Z" fill="#FF7120"/>
</svg>
